<?xml version="1.0" encoding="UTF-8"?> <svg xmlns="http://www.w3.org/2000/svg" id="Layer_1" data-name="Layer 1" viewBox="0 0 738.1 191.06"> <defs> <style>.cls-1{fill:#fff;}</style> </defs> <path class="cls-1" d="M300.57,108.28V106l7.78-.36a3.59,3.59,0,0,0,1.43-2.87V48.5H295.91l-7.16,14.14-2-.27a151.23,151.23,0,0,0,1-16.73h52.8a151.23,151.23,0,0,0,1,16.73l-2,.27L332.34,48.5h-13.7v54.23A3.3,3.3,0,0,0,320,105.6l7.78.36v2.32Z" transform="translate(-32.6 -35.04)"></path> <path class="cls-1" d="M380.67,95.67c-3.85,9.21-10.21,13.78-18.71,13.78-12.17,0-20.76-9-20.76-22.73,0-14,8.23-23.63,20.49-23.63,12,0,19.6,8.14,18.8,20.14H350.24v1c0,12.8,5.64,20.58,14.59,20.58,5.81,0,10.47-3.22,13.6-10ZM350.42,80.36h20.85C371.63,71.23,368,66,361.61,66S351.31,71.41,350.42,80.36Z" transform="translate(-32.6 -35.04)"></path> <path class="cls-1" d="M424.7,105.42l4.66.63v2.23H406.44v-2.23l5.91-.45c1.16-.54,1.34-2.06.36-3.49l-9.22-13.34L393.65,102c-1.08,1.43-1,3,.09,3.58l6.08.45v2.23H383.18v-2.23l4.47-.63L402,86.72l-14-19.6-4.65-.63V64.25h21.83v2.24l-4.92.45c-1.07.71-1.25,2.15-.36,3.58l7.34,10.65,7.88-10.83c1.07-1.43,1.07-2.77-.09-3.49l-5.1-.36V64.25h15.57v2.24l-4.57.54L408.77,83.32Z" transform="translate(-32.6 -35.04)"></path> <path class="cls-1" d="M474.28,66.76a4.35,4.35,0,0,0-1.34,3.13v32.76a4.37,4.37,0,0,0,1.34,3.13l5.19.27v2.23H458.35v-2.23l4.93-.27a4.13,4.13,0,0,0,1.43-3.13V86.72H445.82v15.93a4.34,4.34,0,0,0,1.35,3.13l4.92.27v2.23H431v-2.23l5.19-.27a4.33,4.33,0,0,0,1.34-3.13V69.89a4.31,4.31,0,0,0-1.34-3.13L431,66.49V64.25h21.12v2.24l-4.92.27a4.32,4.32,0,0,0-1.35,3.13v14h18.89v-14a4.12,4.12,0,0,0-1.43-3.13l-4.93-.27V64.25h21.12v2.24Z" transform="translate(-32.6 -35.04)"></path> <path class="cls-1" d="M484.67,86.45c0-14.14,8.59-23.36,21.48-23.36,12.62,0,21,9,21,23,0,14.14-8.59,23.36-21.39,23.36S484.67,100.41,484.67,86.45Zm33.47.09c0-13.43-4.39-20.5-12.17-20.5s-12.26,6.89-12.26,20c0,13.42,4.38,20.49,12.26,20.49S518.14,99.6,518.14,86.54Z" transform="translate(-32.6 -35.04)"></path> <path class="cls-1" d="M531.12,108.91l-.18-8.41a20.87,20.87,0,0,0,2.33.09c6.89,0,9.93-8.06,10.91-28.37.09-2.78-.62-4.57-2-5.37L536,66.49V64.25h39.2v2.24l-5.19.27a4.31,4.31,0,0,0-1.34,3.13v32.76a4.33,4.33,0,0,0,1.34,3.13l5.19.27v2.23H553.85v-2.23l5.19-.27a4.33,4.33,0,0,0,1.34-3.13V67H547.23L547.05,71c-1.17,27-5.1,38.12-13.61,38.12A17.38,17.38,0,0,1,531.12,108.91Z" transform="translate(-32.6 -35.04)"></path> <path class="cls-1" d="M580.43,86.45c0-14.14,8.59-23.36,21.48-23.36,12.62,0,21,9,21,23,0,14.14-8.59,23.36-21.39,23.36S580.43,100.41,580.43,86.45Zm33.47.09c0-13.43-4.38-20.5-12.17-20.5s-12.26,6.89-12.26,20c0,13.42,4.39,20.49,12.26,20.49S613.9,99.6,613.9,86.54Z" transform="translate(-32.6 -35.04)"></path> <path class="cls-1" d="M628.13,108.28v-2.23l5.19-.27a4.34,4.34,0,0,0,1.35-3.13V69.89a4.32,4.32,0,0,0-1.35-3.13l-5.19-.27V64.25h35.26a124.43,124.43,0,0,0,.72,14l-2.06.45L656,66.94H643v35.79a3.6,3.6,0,0,0,1.34,3l6.27.36v2.23Z" transform="translate(-32.6 -35.04)"></path> <path class="cls-1" d="M667.15,108.28v-2.23l5.2-.27a4.37,4.37,0,0,0,1.34-3.13V69.89a4.35,4.35,0,0,0-1.34-3.13l-5.2-.27V64.25h21.12v2.24l-4.92.27a4.12,4.12,0,0,0-1.43,3.13V101l20.85-36.78h13.87v2.24l-5.19.27a4.35,4.35,0,0,0-1.34,3.13v32.76a4.37,4.37,0,0,0,1.34,3.13l5.19.27v2.23h-21v-2.23l4.93-.27a4.37,4.37,0,0,0,1.34-3.13V71.41L681,108.28Z" transform="translate(-32.6 -35.04)"></path> <path class="cls-1" d="M721.21,108.28v-2.23l5.19-.27a4.33,4.33,0,0,0,1.34-3.13V69.89a4.31,4.31,0,0,0-1.34-3.13l-5.19-.27V64.25h21.12v2.24l-4.92.27A4.12,4.12,0,0,0,736,69.89V101l20.85-36.78H770.7v2.24l-5.19.27a4.35,4.35,0,0,0-1.34,3.13v32.76a4.37,4.37,0,0,0,1.34,3.13l5.19.27v2.23h-21v-2.23l4.92-.27a4.34,4.34,0,0,0,1.35-3.13V71.41l-20.86,36.87Z" transform="translate(-32.6 -35.04)"></path> <path class="cls-1" d="M287.41,213.27l-2-.27a182,182,0,0,0,.45-20l5.1-.27c7.79-8.32,12.08-24.16,13.25-49.49.18-4.48-1-7-2.15-7.79l-7.16-.44v-2.33h49.31V135l-6.44.35a3.35,3.35,0,0,0-1.35,2.78v51.55a3.25,3.25,0,0,0,1.44,2.86l7.69.36c-.18,6.8,0,13.15.45,20.13l-1.88.27-7.25-18h-42Zm40.18-20.85V135.5H307.73l-.36,6.54c-1.43,26.22-5.46,42.15-12.44,50.38Z" transform="translate(-32.6 -35.04)"></path> <path class="cls-1" d="M350.78,173.45c0-14.14,8.59-23.36,21.48-23.36,12.61,0,21,9,21,23,0,14.14-8.6,23.36-21.39,23.36S350.78,187.41,350.78,173.45Zm33.47.09c0-13.43-4.39-20.5-12.17-20.5s-12.26,6.89-12.26,20c0,13.42,4.38,20.49,12.26,20.49S384.25,186.6,384.25,173.54Z" transform="translate(-32.6 -35.04)"></path> <path class="cls-1" d="M398.48,195.28v-2.23l5.19-.27a4.37,4.37,0,0,0,1.34-3.13V156.89a4.35,4.35,0,0,0-1.34-3.13l-5.19-.27v-2.24h21.66c10.74,0,16.37,4.12,16.37,10.74,0,4.57-2.59,8-7.69,9.67v.53c6.44,1.44,9.84,5.37,9.84,10.83,0,7.52-6.17,12.26-17.09,12.26Zm14.77-24.52h6.53c5.28,0,8.23-2.95,8.23-8.23s-2.95-8.5-8.32-8.5h-6.44Zm0,21.75H421c5.82,0,9-3.4,9-9.31,0-6.08-3.13-9.66-9-9.66h-7.69Z" transform="translate(-32.6 -35.04)"></path> <path class="cls-1" d="M484.48,182.67c-3.84,9.21-10.2,13.78-18.7,13.78-12.17,0-20.76-9-20.76-22.73,0-14.05,8.23-23.63,20.49-23.63,12,0,19.6,8.14,18.8,20.14H454.06v1c0,12.8,5.63,20.58,14.58,20.58,5.82,0,10.47-3.22,13.61-10Zm-30.24-15.31h20.85c.36-9.13-3.31-14.32-9.67-14.32S455.13,158.41,454.24,167.36Z" transform="translate(-32.6 -35.04)"></path> <path class="cls-1" d="M535.14,172.11c0,14.4-8.5,24.34-21.57,24.34a17,17,0,0,1-10.82-3.4v17.27a3.62,3.62,0,0,0,1.43,3l6.17.36v2.24H487.89v-2.24l5.19-.27a4.31,4.31,0,0,0,1.34-3.13V154.65l-7.16-1.34v-2.06a113.77,113.77,0,0,0,15.22-.71v6.71c6.17-5.37,10-7.16,14.76-7.16C528,150.09,535.14,159.13,535.14,172.11Zm-9,1.52c0-11.46-4-18.62-12.53-18.62-3.67,0-6.17,1.17-10.82,5.28v19.15c0,8.77,4.29,13.88,11.18,13.88C521.63,193.32,526.1,186.16,526.1,173.63Z" transform="translate(-32.6 -35.04)"></path> <path class="cls-1" d="M540.34,195.28v-2.23l5.19-.27a4.37,4.37,0,0,0,1.34-3.13V156.89a4.35,4.35,0,0,0-1.34-3.13l-5.19-.27v-2.24h21.12v2.24l-4.93.27a4.12,4.12,0,0,0-1.43,3.13V188L576,151.25h13.88v2.24l-5.19.27a4.32,4.32,0,0,0-1.35,3.13v32.76a4.34,4.34,0,0,0,1.35,3.13l5.19.27v2.23h-21v-2.23l4.92-.27a4.37,4.37,0,0,0,1.34-3.13V158.41l-20.85,36.87Z" transform="translate(-32.6 -35.04)"></path> <path class="cls-1" d="M633.32,153.76a4.35,4.35,0,0,0-1.34,3.13v32.76a4.37,4.37,0,0,0,1.34,3.13l5.19.27v2.23H617.12v-2.23l5.2-.27a4.37,4.37,0,0,0,1.34-3.13v-14h-5.91L604.6,195.28H593.23v-2.14c3-.54,4.83-2,7.61-5.82l8.59-12.17c-7.07-1.43-10.83-5.55-10.83-11.46,0-7.69,6.26-12.44,17.27-12.44h22.64v2.24Zm-9.66,19.15V154H616.5c-6.09,0-9.22,3.4-9.22,9.3s3.13,9.58,9.31,9.58Z" transform="translate(-32.6 -35.04)"></path> <path class="cls-1" d="M200,194.35c.37-.4.71-.82,1.07-1.22l-1.2,1.37Z" transform="translate(-32.6 -35.04)"></path> <path class="cls-1" d="M202.15,191.83c-.37.44-.75.87-1.12,1.3l1.13-1.3Z" transform="translate(-32.6 -35.04)"></path> <path class="cls-1" d="M91,218.26l1.17.49,1.8.72c-1-.39-2-.8-3-1.22Z" transform="translate(-32.6 -35.04)"></path> <path class="cls-1" d="M38.22,98.2a95.76,95.76,0,0,0,7,79.84L74,154.38Z" transform="translate(-32.6 -35.04)"></path> <path class="cls-1" d="M97.78,40l-1.73,96.32,94.77-77.87A95.78,95.78,0,0,0,97.78,40" transform="translate(-32.6 -35.04)"></path> <path class="cls-1" d="M81.93,147.88l4-3.28L62,61.62q-3.21,3.09-6.14,6.45Z" transform="translate(-32.6 -35.04)"></path> <path class="cls-1" d="M79.54,149.85,46.87,80.31c-1.33,2.16-2.59,4.37-3.75,6.65l33.36,65.41Z" transform="translate(-32.6 -35.04)"></path> <path class="cls-1" d="M75.14,51.09,89.05,142l4.42-3.62L83.1,46.3c-2.74,1.47-5.41,3.08-8,4.8h0l0,0" transform="translate(-32.6 -35.04)"></path> <path class="cls-1" d="M207.68,77.53h0c-.13-.18-.28-.34-.4-.52L49.58,184.89c.12.17.22.35.33.52h0c1.33,1.89,2.73,3.72,4.18,5.51L214.15,88.79A97.15,97.15,0,0,0,207.68,77.53Z" transform="translate(-32.6 -35.04)"></path> <polygon class="cls-1" points="41.15 174.05 41.15 174.05 41.17 174.04 41.15 174.05"></polygon> <path class="cls-1" d="M220.65,154.68l.57-2.31h0C221,153.14,220.85,153.91,220.65,154.68Z" transform="translate(-32.6 -35.04)"></path> <path class="cls-1" d="M73.16,208.67l.58.41s0,0,0,0h0c.5.33,4.23,2.83,6.82,4.33l135.26-44.74a94.7,94.7,0,0,0,4.64-13.24h0c.07-.24.11-.5.18-.75.2-.77.38-1.54.56-2.31Z" transform="translate(-32.6 -35.04)"></path> <path class="cls-1" d="M222.24,113.6h0c0-.18-.08-.35-.11-.53l-.13-.64L59.81,197.28l.37.38c.13.13.25.28.38.41h0c1.76,1.77,3.6,3.47,5.5,5.09l157.59-76.81A95.45,95.45,0,0,0,222.24,113.6Zm0,0v0h0v0Z" transform="translate(-32.6 -35.04)"></path> <path class="cls-1" d="M89.5,217.91l.79.34-.78-.34Z" transform="translate(-32.6 -35.04)"></path> <path class="cls-1" d="M202,191.18,89.51,217.91l.78.34c1,.42,2,.83,3,1.22.33.13.64.29,1,.42h0a95.74,95.74,0,0,0,99.25-19.58h0c.27-.26.51-.55.78-.81l1-1,.12-.13,1.73-1.72-.09,0c.71-.73,1.43-1.45,2.12-2.2l1.2-1.37c.37-.43.75-.86,1.12-1.3h0l.55-.65Z" transform="translate(-32.6 -35.04)"></path> </svg> 